# xmcd
#
# Track frame offsets:
#	150
#	17925
#	34100
#	53150
#	72675
#	85700
#	100250
#	122100
#	139990
#	159825
#
# Disc length: 2398 seconds
#
# Revision: 1
# Processed by: cddbd v1.5.2PL0 Copyright (c) Steve Scherf et al.
# Submitted via: audiograbber 1.83.01
#
DISCID=86095c0a
DTITLE=Mitch Ryder - In The China Shop
DYEAR=1986
DGENRE=Rock
TTITLE0=Where Is The Next One Coming From ?
TTITLE1=Like A Worm
TTITLE2=Rock´n´roll Skin
TTITLE3=All The Way
TTITLE4=Looks Are Deceiving
TTITLE5=I´m Not Sad Tonight
TTITLE6=End Of The Line
TTITLE7=Uncle Sam and The Russian Bear
TTITLE8=Youngblood
TTITLE9=Berry´s Nightmare
EXTD=
EXTT0=
EXTT1=
EXTT2=
EXTT3=
EXTT4=
EXTT5=
EXTT6=
EXTT7=
EXTT8=
EXTT9=
PLAYORDER=
